<svg xmlns="http://www.w3.org/2000/svg" xmlns:xlink="http://www.w3.org/1999/xlink" width="483pt" height="120pt" viewBox="0.00 0.00 483.00 120.00">
<g id="graph0" class="graph" transform="scale(1 1) rotate(0) translate(4 116.4)">
<title>LegacyDeps</title>
<polygon fill="white" stroke="none" points="-4,4 -4,-116.4 478.76,-116.4 478.76,4 -4,4"/>
<text xml:space="preserve" text-anchor="middle" x="237.38" y="-97.6" font-family="Times,serif" font-size="12.00">Legacy dependency graph</text>
<!-- Flask -->
<g id="node1" class="node">
<title>Flask</title>
<path fill="white" stroke="black" d="M118.36,-63C118.36,-63 12,-63 12,-63 6,-63 0,-57 0,-51 0,-51 0,-39 0,-39 0,-33 6,-27 12,-27 12,-27 118.36,-27 118.36,-27 124.36,-27 130.36,-33 130.36,-39 130.36,-39 130.36,-51 130.36,-51 130.36,-57 124.36,-63 118.36,-63"/>
<text xml:space="preserve" text-anchor="middle" x="65.18" y="-40.8" font-family="Helvetica,sans-Serif" font-size="14.00">Flask App (server)</text>
</g>
<!-- Routes -->
<g id="node2" class="node">
<title>Routes</title>
<path fill="white" stroke="black" d="M294.08,-63C294.08,-63 178.36,-63 178.36,-63 172.36,-63 166.36,-57 166.36,-51 166.36,-51 166.36,-39 166.36,-39 166.36,-33 172.36,-27 178.36,-27 178.36,-27 294.08,-27 294.08,-27 300.08,-27 306.08,-33 306.08,-39 306.08,-39 306.08,-51 306.08,-51 306.08,-57 300.08,-63 294.08,-63"/>
<text xml:space="preserve" text-anchor="middle" x="236.22" y="-40.8" font-family="Helvetica,sans-Serif" font-size="14.00">Routes / Controllers</text>
</g>
<!-- Flask&#45;&gt;Routes -->
<g id="edge1" class="edge">
<title>Flask-&gt;Routes</title>
<path fill="none" stroke="black" d="M130.57,-45C138.43,-45 146.54,-45 154.6,-45"/>
<polygon fill="black" stroke="black" points="154.43,-48.5 164.43,-45 154.43,-41.5 154.43,-48.5"/>
</g>
<!-- SQLite -->
<g id="node3" class="node">
<title>SQLite</title>
<path fill="white" stroke="black" d="M437.49,-90C437.49,-90 379.35,-90 379.35,-90 373.35,-90 367.35,-84 367.35,-78 367.35,-78 367.35,-66 367.35,-66 367.35,-60 373.35,-54 379.35,-54 379.35,-54 437.49,-54 437.49,-54 443.49,-54 449.49,-60 449.49,-66 449.49,-66 449.49,-78 449.49,-78 449.49,-84 443.49,-90 437.49,-90"/>
<text xml:space="preserve" text-anchor="middle" x="408.42" y="-67.8" font-family="Helvetica,sans-Serif" font-size="14.00">SQLite DB</text>
</g>
<!-- Routes&#45;&gt;SQLite -->
<g id="edge2" class="edge">
<title>Routes-&gt;SQLite</title>
<path fill="none" stroke="black" d="M306.44,-55.98C323.03,-58.61 340.46,-61.38 356.07,-63.85"/>
<polygon fill="black" stroke="black" points="355.16,-67.25 365.59,-65.36 356.26,-60.34 355.16,-67.25"/>
</g>
<!-- Templates -->
<g id="node4" class="node">
<title>Templates</title>
<path fill="white" stroke="black" d="M462.76,-36C462.76,-36 354.08,-36 354.08,-36 348.08,-36 342.08,-30 342.08,-24 342.08,-24 342.08,-12 342.08,-12 342.08,-6 348.08,0 354.08,0 354.08,0 462.76,0 462.76,0 468.76,0 474.76,-6 474.76,-12 474.76,-12 474.76,-24 474.76,-24 474.76,-30 468.76,-36 462.76,-36"/>
<text xml:space="preserve" text-anchor="middle" x="408.42" y="-13.8" font-family="Helvetica,sans-Serif" font-size="14.00">Templates (HTML)</text>
</g>
<!-- Routes&#45;&gt;Templates -->
<g id="edge3" class="edge">
<title>Routes-&gt;Templates</title>
<path fill="none" stroke="black" d="M306.44,-34.02C314.39,-32.76 322.52,-31.47 330.56,-30.19"/>
<polygon fill="black" stroke="black" points="331,-33.67 340.33,-28.64 329.91,-26.75 331,-33.67"/>
</g>
</g>
</svg>